# xmcd
#
# Track frame offsets: 
#        150
#        17863
#        35272
#        50818
#        66142
#        88803
#        104731
#        120531
#        137260
#        152512
#        167981
#        186485
#
# Disc length: 2664 seconds
#
# Revision: 0
# Processed by: cddbd v1.5.2PL0 Copyright (c) Steve Scherf et al.
# Submitted via: ExactAudioCopy v1.3
#
DISCID=a60a660c
DTITLE=Tiger City Jukes - Sex, Money and Violence
DYEAR=2001
DGENRE=Blues
TTITLE0=A Shot Of The Blues
TTITLE1=Big Yellow Moon
TTITLE2=My Baby Done Left Me
TTITLE3=Greasepit
TTITLE4=Sail On
TTITLE5=Don J. Boogie
TTITLE6=Just Like Cherry Wine
TTITLE7=Angel and Devil
TTITLE8=Shame Shame
TTITLE9=Essential Vitamins
TTITLE10=Heartbroken Blues
TTITLE11=Sex, Money And Violence
EXTD=
EXTT0=
EXTT1=
EXTT2=
EXTT3=
EXTT4=
EXTT5=
EXTT6=
EXTT7=
EXTT8=
EXTT9=
EXTT10=
EXTT11=
PLAYORDER=
